#!OML:ASF F:\VICON\USERDATA\INSTALL\rory3\rory3.ASF
:FULLY-SPECIFIED
:DEGREES
875
root 0.124404 18.1855 1.66975 -330.777 87.6474 31.1058
lowerback 10.2627 0.656065 -1.77452
upperback 0.506497 0.692506 0.013797
thorax -5.25125 0.395005 0.911871
lowerneck -19.1444 -7.75731 -13.4599
upperneck 27.7594 -9.76423 10.8843
head 13.9142 -4.14621 4.90107
rclavicle 1.93194e-015 -5.06901e-015
rhumerus -33.2597 -9.27943 -83.909
rradius 34.7896
rwrist 5.06557
rhand -13.9095 9.37867
rfingers 7.12502
rthumb 12.2164 -20.2446
lclavicle 1.93194e-015 -5.06901e-015
lhumerus -37.7048 3.25683 86.2783
lradius 34.481
lwrist -4.71668
lhand -21.4436 26.7699
lfingers 7.12502
lthumb 4.94607 56.6922
rfemur -4.2576 0.409289 16.5463
rtibia 22.1864
rfoot -14.0496 -5.328
rtoes 0.164279
lfemur 0.841797 -1.01199 -25.3718
ltibia 10.9877
lfoot -5.0005 -2.46098
ltoes 16.0831
876
root 0.122291 18.1898 1.66193 -338.195 87.2818 23.5969
lowerback 10.2016 0.680225 -1.75063
upperback 0.500771 0.732611 0.100996
thorax -5.22507 0.414763 0.984149
lowerneck -19.141 -7.78637 -13.5047
upperneck 27.7706 -9.79616 10.8877
head 13.9266 -4.16532 4.90407
rclavicle 4.40432e-015 -1.09332e-015
rhumerus -33.1811 -9.16923 -83.9145
rradius 34.8508
rwrist 5.24661
rhand -13.7966 9.45965
rfingers 7.12502
rthumb 12.3252 -20.1571
lclavicle 4.40432e-015 -1.09332e-015
lhumerus -37.7582 3.39231 86.2932
lradius 34.4467
lwrist -4.80745
lhand -19.8971 26.3637
lfingers 7.12502
lthumb 6.43912 56.2458
rfemur -4.39156 -0.157412 16.5825
rtibia 22.229
rfoot -14.1655 -6.31549
rtoes 0.88711
lfemur 0.775082 -0.806223 -25.2483
ltibia 10.9513
lfoot -4.9944 -2.22697
ltoes 15.9381
877
root 0.120551 18.1945 1.65392 -341.838 86.7586 19.8707
lowerback 10.1176 0.735761 -1.87846
upperback 0.510036 0.795678 0.148012
thorax -5.17269 0.448801 1.09695
lowerneck -19.0926 -7.85217 -13.7152
upperneck 27.7525 -9.88569 11.0649
head 13.9493 -4.20631 4.9964
rclavicle 1.22998e-015 2.98177e-016
rhumerus -33.1338 -8.93382 -83.9741
rradius 35.0443
rwrist 5.06789
rhand -13.6146 9.48141
rfingers 7.12502
rthumb 12.5007 -20.1247
lclavicle 1.22998e-015 2.98177e-016
lhumerus -37.731 3.56793 86.2943
lradius 34.323
lwrist -4.85258
lhand -17.447 25.5347
lfingers 7.12502
lthumb 8.80398 55.3311
rfemur -4.53479 -0.735569 16.472
rtibia 22.311
rfoot -14.3056 -7.35311
rtoes 0.458227
lfemur 0.768246 -0.475401 -25.2746
ltibia 10.8013
lfoot -4.90077 -2.04665
ltoes 15.6439
878
root 0.112216 18.196 1.63876 -346.401 86.1718 15.4202
lowerback 10.3253 0.811986 -1.72001
upperback 0.552844 0.912891 0.149673
thorax -5.24561 0.503599 0.990247
lowerneck -18.9581 -7.91793 -13.914
upperneck 27.6676 -9.98254 11.232
head 13.9249 -4.25368 5.07945
rclavicle -1.32502e-014 -9.93923e-017
rhumerus -33.0991 -8.93323 -83.9909
rradius 35.1988
rwrist 4.96163
rhand -13.3669 9.71155
rfingers 7.12502
rthumb 12.7395 -19.8798
lclavicle -1.32502e-014 -9.93923e-017
lhumerus -37.6992 3.52899 86.3348
lradius 34.2182
lwrist -4.79393
lhand -16.086 24.9602
lfingers 7.12502
lthumb 10.1172 54.6969
rfemur -4.51294 -1.29581 16.4464
rtibia 22.4251
rfoot -14.3844 -8.26056
rtoes 0.480382
lfemur 1.00396 -0.112394 -25.236
ltibia 10.55
lfoot -4.85554 -1.68629
ltoes 14.9743
879
root 0.107728 18.2006 1.62136 -349.095 85.6861 12.7328
lowerback 10.4047 0.827222 -1.49384
upperback 0.56666 0.955427 0.0891135
thorax -5.2721 0.5187 0.792418
lowerneck -18.9039 -7.97918 -13.9641
upperneck 27.6523 -10.0867 11.3021
head 13.9324 -4.29768 5.09666
rclavicle 8.21229e-015 2.98177e-016
rhumerus -33.0743 -8.97171 -84.1206
rradius 35.3427
rwrist 4.98127
rhand -13.5224 9.68081
rfingers 7.12502
rthumb 12.5896 -19.9198
lclavicle 8.21229e-015 2.98177e-016
lhumerus -37.6798 3.60108 86.3004
lradius 34.1111
lwrist -4.82823
lhand -16.1968 25.0822
lfingers 7.12502
lthumb 10.0103 54.8242
rfemur -4.57075 -2.0254 16.3531
rtibia 22.5458
rfoot -14.5732 -8.88145
rtoes 2.44216
lfemur 1.16919 0.0337179 -25.2364
ltibia 10.2286
lfoot -4.73978 -1.32093
ltoes 14.7349
880
root 0.108221 18.2062 1.60852 -350.544 85.1616 11.2156
lowerback 10.3216 0.84998 -1.40715
upperback 0.594907 0.993232 0.00944315
thorax -5.19393 0.533867 0.656187
lowerneck -18.9201 -8.0572 -13.8275
upperneck 27.65 -10.2239 11.2225
head 13.9425 -4.35311 5.01156
rclavicle -2.64943e-015 -1.2424e-015
rhumerus -33.0082 -8.97316 -84.3703
rradius 35.4928
rwrist 5.05354
rhand -13.9156 9.24905
rfingers 7.12502
rthumb 12.2105 -20.3745
lclavicle -2.64943e-015 -1.2424e-015
lhumerus -37.631 3.57306 86.2312
lradius 34.0342
lwrist -4.87524
lhand -16.6067 25.5849
lfingers 7.12502
lthumb 9.61482 55.3454
rfemur -4.68777 -2.80342 16.204
rtibia 22.6435
rfoot -14.871 -9.45344
rtoes 4.06291
lfemur 1.28131 -0.0846515 -25.3008
ltibia 9.92685
lfoot -4.671 -0.687968
ltoes 14.7701
881
root 0.10835 18.209 1.59943 -352.819 84.4531 8.8725
lowerback 10.1953 0.945421 -1.36171
upperback 0.647787 1.12897 0.0286088
thorax -5.07037 0.599194 0.633146
lowerneck -18.9026 -8.11395 -13.663
upperneck 27.5723 -10.3208 11.0877
head 13.9 -4.39721 4.90389
rclavicle -1.18681e-014 3.27995e-015
rhumerus -32.8712 -8.91278 -84.4871
rradius 35.5481
rwrist 4.95139
rhand -13.8085 9.30217
rfingers 7.12502
rthumb 12.3137 -20.3152
lclavicle -1.18681e-014 3.27995e-015
lhumerus -37.5926 3.65452 86.1061
lradius 34.0129
lwrist -5.53816
lhand -17.0544 25.908
lfingers 7.12502
lthumb 9.18281 55.688
rfemur -4.86053 -3.33596 16.1793
rtibia 22.7156
rfoot -15.1002 -10.2914
rtoes 4.46841
lfemur 1.37748 -0.00985904 -25.2691
ltibia 9.69784
lfoot -4.6853 -0.0132717
ltoes 14.5923
882
root 0.107325 18.2113 1.59492 -354.829 83.7664 6.84086
lowerback 10.1487 1.01279 -1.33625
upperback 0.701839 1.22481 0.0630721
thorax -4.99 0.645855 0.642231
lowerneck -18.9708 -8.16284 -13.6221
upperneck 27.6184 -10.4027 11.0818
head 13.9445 -4.4275 4.87844
rclavicle -2.35125e-014 3.57812e-015
rhumerus -32.8263 -8.64217 -84.6782
rradius 35.7076
rwrist 4.61444
rhand -13.6987 9.52345
rfingers 7.12502
rthumb 12.4196 -20.0876
lclavicle -2.35125e-014 3.57812e-015
lhumerus -37.5732 3.9657 85.7987
lradius 33.9968
lwrist -6.58307
lhand -17.8043 26.1902
lfingers 7.12502
lthumb 8.45916 56.0008
rfemur -4.95877 -4.01777 16.2276
rtibia 22.7056
rfoot -15.1938 -11.1935
rtoes 4.81488
lfemur 1.36277 0.0426059 -25.1945
ltibia 9.78088
lfoot -4.78333 0.630784
ltoes 14.4313
883
root 0.103446 18.2165 1.5908 -356.844 83.2059 4.80959
lowerback 10.2606 1.01773 -1.20413
upperback 0.664277 1.24412 0.062555
thorax -5.08955 0.652748 0.562224
lowerneck -18.96 -8.21268 -13.7292
upperneck 27.7343 -10.5102 11.2657
head 14.031 -4.46106 4.95774
rclavicle 3.33586e-015 1.68967e-015
rhumerus -32.9109 -8.51253 -84.9222
rradius 35.8822
rwrist 4.56043
rhand -13.8219 9.40316
rfingers 7.12502
rthumb 12.3008 -20.215
lclavicle 3.33586e-015 1.68967e-015
lhumerus -37.7616 3.96119 85.5833
lradius 34.1158
lwrist -6.87692
lhand -18.0973 26.5139
lfingers 7.12502
lthumb 8.17642 56.3357
rfemur -4.96856 -5.28274 16.3312
rtibia 22.6102
rfoot -15.4032 -11.7621
rtoes 5.99771
lfemur 1.2451 -0.0335984 -25.0304
ltibia 10.0557
lfoot -4.99364 1.2652
ltoes 14.6662
884
root 0.0961014 18.2227 1.58762 -361.464 82.5137 0.133731
lowerback 10.4487 1.06965 -0.72595
upperback 0.576158 1.37277 0.19937
thorax -5.28197 0.706791 0.412493
lowerneck -18.7793 -8.22784 -13.8122
upperneck 27.6966 -10.5597 11.3716
head 13.9979 -4.48404 5.00822
rclavicle -1.07468e-014 5.96354e-016
rhumerus -33.0139 -8.53541 -85.006
rradius 35.968
rwrist 4.65095
rhand -13.8735 9.36275
rfingers 7.12502
rthumb 12.2511 -20.2584
lclavicle -1.07468e-014 5.96354e-016
lhumerus -38.0762 3.73497 85.5955
lradius 34.3001
lwrist -6.72943
lhand -17.8945 26.4216
lfingers 7.12502
lthumb 8.37216 56.2357
rfemur -5.00867 -6.46242 16.8603
rtibia 22.4891
rfoot -15.5755 -12.1765
rtoes 7.62139
lfemur 1.04237 0.331037 -24.3964
ltibia 10.4154
lfoot -5.25083 1.57156
ltoes 14.7584
885
root 0.0931147 18.229 1.58731 -365.046 81.6575 -3.3896
lowerback 10.6425 1.16789 -0.416638
upperback 0.575442 1.55263 0.428127
thorax -5.39206 0.790899 0.446307
lowerneck -18.7281 -8.23501 -13.8071
upperneck 27.7043 -10.5357 11.2303
head 13.9753 -4.49401 4.95359
rclavicle -8.97637e-015 2.38542e-015
rhumerus -33.0259 -8.27063 -84.9759
rradius 36.0281
rwrist 4.51105
rhand -13.8129 9.46016
rfingers 7.12502
rthumb 12.3095 -20.1575
lclavicle -8.97637e-015 2.38542e-015
lhumerus -38.3168 3.892 85.6895
lradius 34.467
lwrist -6.68869
lhand -17.7053 25.9705
lfingers 7.12502
lthumb 8.55474 55.7772
rfemur -4.93065 -7.04313 17.3702
rtibia 22.3917
rfoot -15.6807 -13.0393
rtoes 8.83402
lfemur 0.944756 0.868312 -23.813
ltibia 10.8545
lfoot -5.61245 1.90148
ltoes 14.7113
886
root 0.0918837 18.2304 1.57781 -366.272 80.8 -4.68014
lowerback 10.6272 1.22753 -0.277768
upperback 0.587583 1.65659 0.566486
thorax -5.37237 0.840446 0.497355
lowerneck -18.7866 -8.2582 -13.8723
upperneck 27.7632 -10.5231 11.1513
head 14.0101 -4.50519 4.93488
rclavicle 1.40392e-014 -6.60959e-015
rhumerus -32.9455 -7.94494 -84.9975
rradius 36.0753
rwrist 4.3987
rhand -13.9392 9.4633
rfingers 7.12502
rthumb 12.1877 -20.1616
lclavicle 1.40392e-014 -6.60959e-015
lhumerus -38.3195 4.33604 85.6825
lradius 34.3552
lwrist -6.82597
lhand -17.606 25.8516
lfingers 7.12502
lthumb 8.65054 55.6544
rfemur -5.04444 -7.61154 17.6014
rtibia 22.4161
rfoot -15.7066 -14.1105
rtoes 8.97294
lfemur 0.823971 0.850783 -23.6191
ltibia 11.1114
lfoot -5.87045 2.79304
ltoes 14.4236
887
root 0.0880701 18.2303 1.5613 -365.321 79.912 -4.07676
lowerback 10.3167 1.31522 -0.238396
upperback 0.520751 1.77129 0.489797
thorax -5.26628 0.894277 0.384333
lowerneck -18.8436 -8.30939 -13.9226
upperneck 27.8491 -10.6115 11.2365
head 14.0843 -4.53631 4.96393
rclavicle 4.28008e-014 6.31141e-015
rhumerus -32.8844 -7.9264 -85.1377
rradius 36.1358
rwrist 4.48539
rhand -14.0239 9.49594
rfingers 7.12502
rthumb 12.1061 -20.1338
lclavicle 4.28008e-014 6.31141e-015
lhumerus -38.1728 4.4664 85.5366
lradius 34.0405
lwrist -7.0232
lhand -17.7287 25.98
lfingers 7.12502
lthumb 8.53214 55.7876
rfemur -5.70202 -8.41429 17.5144
rtibia 22.7703
rfoot -15.7762 -14.9916
rtoes 8.73704
lfemur 0.627079 0.718914 -23.7556
ltibia 10.8246
lfoot -5.70089 3.66901
ltoes 15.2989
